<svg xmlns="http://www.w3.org/2000/svg" xmlns:xlink="http://www.w3.org/1999/xlink" viewBox="0 0 829.66 276.41"><defs><style>.cls-1{fill:url(#Degradado_sin_nombre_59);}.cls-2{opacity:0.8;fill:url(#Degradado_sin_nombre_42);}.cls-3{fill:#9fc0e2;opacity:0.85;}.cls-4{fill:#2b71a4;}.cls-24,.cls-25,.cls-5{fill:#257;}.cls-6{fill:url(#Degradado_sin_nombre_10);}.cls-7{fill:url(#Degradado_sin_nombre_10-2);}.cls-8{fill:url(#Degradado_sin_nombre_10-3);}.cls-9{opacity:0.71;fill:url(#Degradado_sin_nombre_10-4);}.cls-10{fill:url(#Degradado_sin_nombre_10-5);}.cls-11{fill:url(#Degradado_sin_nombre_71);}.cls-12{fill:url(#Degradado_sin_nombre_10-6);}.cls-13{fill:#4983b8;}.cls-14{fill:#a1b9c4;}.cls-15,.cls-16,.cls-17,.cls-22,.cls-23,.cls-30{fill:none;stroke-miterlimit:10;}.cls-15{stroke:url(#Degradado_sin_nombre_88);}.cls-16,.cls-22{stroke-width:1.02px;}.cls-16{stroke:url(#Degradado_sin_nombre_88-2);}.cls-17{stroke-width:0.6px;stroke:url(#Degradado_sin_nombre_88-3);}.cls-18{fill:url(#Degradado_sin_nombre_106);}.cls-19{fill:url(#Degradado_sin_nombre_105);}.cls-20{fill:url(#Degradado_sin_nombre_102);}.cls-21{fill:url(#Degradado_sin_nombre_37);}.cls-22{stroke:url(#Degradado_sin_nombre_88-4);}.cls-23{stroke-width:0.64px;stroke:url(#Degradado_sin_nombre_88-5);}.cls-24{opacity:0.13;}.cls-25{opacity:0.07;}.cls-26{fill:#2a4472;}.cls-27{fill:#727575;}.cls-28{fill:#9ca0a0;}.cls-29{fill:#b0afaf;}.cls-30{stroke:#2a4472;stroke-width:7px;}</style><linearGradient id="Degradado_sin_nombre_59" x1="569.26" y1="89.22" x2="569.26" y2="137.64" gradientUnits="userSpaceOnUse"><stop offset="0" stop-color="#9fc0e2" stop-opacity="0.1"/><stop offset="0.31" stop-color="#b2c0e0" stop-opacity="0.37"/><stop offset="1" stop-color="#dfc1db"/></linearGradient><linearGradient id="Degradado_sin_nombre_42" x1="323.86" y1="119.97" x2="486.89" y2="119.97" gradientUnits="userSpaceOnUse"><stop offset="0.17" stop-color="#cdbddb"/><stop offset="0.38" stop-color="#cbbddb" stop-opacity="0.99"/><stop offset="0.5" stop-color="#c5bbda" stop-opacity="0.95"/><stop offset="0.6" stop-color="#bab8d9" stop-opacity="0.89"/><stop offset="0.69" stop-color="#abb4d8" stop-opacity="0.8"/><stop offset="0.77" stop-color="#98afd6" stop-opacity="0.68"/><stop offset="0.85" stop-color="#80a9d4" stop-opacity="0.54"/><stop offset="0.92" stop-color="#63a2d2" stop-opacity="0.37"/><stop offset="0.98" stop-color="#439acf" stop-opacity="0.18"/><stop offset="1" stop-color="#3897ce" stop-opacity="0.12"/></linearGradient><linearGradient id="Degradado_sin_nombre_10" x1="454.26" y1="141.31" x2="454.26" y2="285.93" gradientUnits="userSpaceOnUse"><stop offset="0" stop-color="#9fc0e2" stop-opacity="0.1"/><stop offset="0.24" stop-color="#9bbcde" stop-opacity="0.13"/><stop offset="0.44" stop-color="#8eb1d3" stop-opacity="0.22"/><stop offset="0.62" stop-color="#789ec0" stop-opacity="0.38"/><stop offset="0.79" stop-color="#5984a6" stop-opacity="0.61"/><stop offset="0.95" stop-color="#316284" stop-opacity="0.89"/><stop offset="1" stop-color="#257"/></linearGradient><linearGradient id="Degradado_sin_nombre_10-2" x1="48.77" y1="187.04" x2="48.77" y2="227.38" xlink:href="#Degradado_sin_nombre_10"/><linearGradient id="Degradado_sin_nombre_10-3" x1="367.76" y1="75.5" x2="367.76" y2="158.57" xlink:href="#Degradado_sin_nombre_10"/><linearGradient id="Degradado_sin_nombre_10-4" x1="586.81" y1="73.57" x2="586.81" y2="136.45" xlink:href="#Degradado_sin_nombre_10"/><linearGradient id="Degradado_sin_nombre_10-5" x1="705.65" y1="83.84" x2="705.65" y2="127.43" xlink:href="#Degradado_sin_nombre_10"/><linearGradient id="Degradado_sin_nombre_71" x1="467.89" y1="123.74" x2="467.89" y2="232.24" gradientUnits="userSpaceOnUse"><stop offset="0.11" stop-color="#2c5b7e" stop-opacity="0.93"/><stop offset="0.13" stop-color="#305e81" stop-opacity="0.9"/><stop offset="0.32" stop-color="#5781a4" stop-opacity="0.58"/><stop offset="0.5" stop-color="#769cbe" stop-opacity="0.33"/><stop offset="0.68" stop-color="#8cafd2" stop-opacity="0.15"/><stop offset="0.85" stop-color="#9bd" stop-opacity="0.04"/><stop offset="1" stop-color="#9ebfe1" stop-opacity="0"/></linearGradient><linearGradient id="Degradado_sin_nombre_10-6" x1="506.18" y1="64.62" x2="506.18" y2="264.79" xlink:href="#Degradado_sin_nombre_10"/><linearGradient id="Degradado_sin_nombre_88" x1="35.14" y1="207.62" x2="88.75" y2="207.62" gradientUnits="userSpaceOnUse"><stop offset="0" stop-color="#9fc0e2" stop-opacity="0.1"/><stop offset="0.06" stop-color="#93b2d9" stop-opacity="0.19"/><stop offset="0.25" stop-color="#7089be" stop-opacity="0.48"/><stop offset="0.45" stop-color="#5569a9" stop-opacity="0.71"/><stop offset="0.64" stop-color="#415299" stop-opacity="0.87"/><stop offset="0.82" stop-color="#354490" stop-opacity="0.97"/><stop offset="1" stop-color="#313f8d"/></linearGradient><linearGradient id="Degradado_sin_nombre_88-2" x1="493.51" y1="253.49" x2="547.13" y2="253.49" gradientTransform="matrix(-1.04, 0, 0, 1, 1119.96, -54.25)" xlink:href="#Degradado_sin_nombre_88"/><linearGradient id="Degradado_sin_nombre_88-3" x1="499.1" y1="259.41" x2="530.89" y2="259.41" gradientTransform="matrix(-1.04, 0, 0, 1, 1119.96, -54.25)" xlink:href="#Degradado_sin_nombre_88"/><linearGradient id="Degradado_sin_nombre_106" x1="103.49" y1="330.66" x2="103.49" y2="291.82" gradientUnits="userSpaceOnUse"><stop offset="0" stop-color="#9fc0e2" stop-opacity="0"/><stop offset="0.12" stop-color="#a0bee1" stop-opacity="0.02"/><stop offset="0.22" stop-color="#a2b7dc" stop-opacity="0.07"/><stop offset="0.3" stop-color="#a5abd4" stop-opacity="0.15"/><stop offset="0.39" stop-color="#aa9ac9" stop-opacity="0.27"/><stop offset="0.47" stop-color="#b184bb" stop-opacity="0.43"/><stop offset="0.55" stop-color="#b86aa9" stop-opacity="0.62"/><stop offset="0.62" stop-color="#c14b95" stop-opacity="0.84"/><stop offset="0.67" stop-color="#c83486"/></linearGradient><linearGradient id="Degradado_sin_nombre_105" x1="467.49" y1="329.09" x2="467.49" y2="301.77" gradientUnits="userSpaceOnUse"><stop offset="0" stop-color="#9fc0e2" stop-opacity="0"/><stop offset="0.1" stop-color="#a0bce0" stop-opacity="0.03"/><stop offset="0.23" stop-color="#a3b1d8" stop-opacity="0.1"/><stop offset="0.38" stop-color="#a99fcd" stop-opacity="0.23"/><stop offset="0.53" stop-color="#b087bc" stop-opacity="0.41"/><stop offset="0.7" stop-color="#b966a7" stop-opacity="0.64"/><stop offset="0.86" stop-color="#c5408e" stop-opacity="0.92"/><stop offset="0.91" stop-color="#c83486"/></linearGradient><linearGradient id="Degradado_sin_nombre_102" x1="809.6" y1="328.74" x2="809.6" y2="297.98" gradientUnits="userSpaceOnUse"><stop offset="0" stop-color="#9fc0e2" stop-opacity="0"/><stop offset="0.11" stop-color="#a0bce0" stop-opacity="0.03"/><stop offset="0.24" stop-color="#a3b1d8" stop-opacity="0.1"/><stop offset="0.39" stop-color="#a99fcd" stop-opacity="0.23"/><stop offset="0.55" stop-color="#b087bc" stop-opacity="0.41"/><stop offset="0.72" stop-color="#b966a7" stop-opacity="0.64"/><stop offset="0.89" stop-color="#c5408e" stop-opacity="0.92"/><stop offset="0.94" stop-color="#c83486"/></linearGradient><linearGradient id="Degradado_sin_nombre_37" x1="319.14" y1="140.47" x2="357.3" y2="140.47" gradientUnits="userSpaceOnUse"><stop offset="0" stop-color="#257"/><stop offset="1" stop-color="#3897ce" stop-opacity="0.12"/></linearGradient><linearGradient id="Degradado_sin_nombre_88-4" x1="785.58" y1="190.06" x2="839.19" y2="190.06" gradientTransform="matrix(-1.04, 0, 0, 1, 1119.96, -54.25)" xlink:href="#Degradado_sin_nombre_88"/><linearGradient id="Degradado_sin_nombre_88-5" x1="798.01" y1="208.84" x2="831.79" y2="208.84" gradientTransform="matrix(-1.04, 0, 0, 1, 1119.96, -54.25)" xlink:href="#Degradado_sin_nombre_88"/></defs><g id="coche_entero" data-name="coche entero"><path class="cls-1" d="M528.09,91.85c4.52-4.89,11.66-2.24,41.19,2,19.2,2.79,22.74,2.62,28.59,6.47,8.38,5.51,17.87,16.88,15,24.17-2.82,7.14-14.84,3.65-50.38,9.19-20.69,3.23-29.36,6.39-34.38,1-3.32-3.54-3.12-10.53-2.73-24.51C525.66,99.62,525.81,94.31,528.09,91.85Z" transform="translate(-29.53 -54.25)"/><path class="cls-2" d="M323.88,143.63c-1.6-10,68.44-31.27,97.4-40,31.92-9.67,24.15-2.84,47.87-10.72,7.49-2.49,12.11-4.45,15.09-1.79,9.41,8.42-9.19,52.9-9.19,52.9h0S326.19,158,323.88,143.63Z" transform="translate(-29.53 -54.25)"/><path class="cls-3" d="M61.74,199.33c1.3-5.58,8.34-25.74,106.47-45.2,45.95-9.1,48.64-5.52,78.13-13.78,24.38-6.83,28.27-10.89,82-34.47,83.51-36.69,108.37-41.95,124.08-44.43s31.05-2.65,62-3.06c61.53-.81,167.51,4,194.56,10a34.83,34.83,0,0,0,13.78.76c10.76-1.69,11.9-7.61,23-10.72,3.77-1.06,3.26-.27,23-.77,14.7-.37,17.59-.87,18.39.77,2.6,5.36-24.92,17.77-23,30.64.62,4.14,4,6.22,21.44,16.08,30,16.93,37.71,20.75,39.83,29.11,1.42,5.6-1.67,5.37-3.06,18.38-1,9.59-3,27.79,6.89,39.83,6.2,7.56,11.75,6.22,14.56,13.79,2.29,6.18-.41,9.78,2.29,18.38,1.9,6.06,4.15,7.18,6.13,11.49,5.88,12.78.42,33.88-12.25,41.36-1.74,1-2.85,1.35-23,3.07-22,1.88-24.4,2.08-26.81,0-6-5.22-.62-14.4-3.62-30.54-2.85-15.39-11.25-25.79-14-29.21-18.71-23.2-48.93-25.11-52.85-25.27-23.32-1-51.44,8.84-64.34,29.87-14,22.81-10.74,59.86-10.72,59.74l-.78.09c-64.2,6.87-112.58,12.06-165.44,14.47-57.11,2.6-104.38,1.28-121.78.76-28.15-.84-44,5.35-65.24-2.22-2-.7-3.53-1.35-4.51-1.76,1.61-5.1,11.42-38.21-8.17-69.71a82.27,82.27,0,0,0-40.85-33.19c-4.89-1.79-42.46-14.84-72.76,8.43-22.13,17-27.8,43.71-27.83,55.66,0,12.64-.06,19,1.78,23.74,1.63,4.24,5.11,10.89,2.34,14.46a5.76,5.76,0,0,1-2,1.51c-4.56,2.44-12.82.54-49.32-1.51-22.56-1.28-29.4-1.13-32.17-6.13-4.43-8,8.66-16.35,8.43-36.77-.1-9.33-2.86-9.92-4.6-24.51C60.68,219.49,60.12,206.28,61.74,199.33Z" transform="translate(-29.53 -54.25)"/><path class="cls-4" d="M97.4,207.71c14-3.54,19.58-5.37,26-9.65,3.55-2.37,15.26-10.18,13.74-14.49-2.39-6.78-38.07-6-62,13-6.18,4.92-14.9,13.7-13,17.09C63.57,216.24,74.87,213.43,97.4,207.71Z" transform="translate(-29.53 -54.25)"/><path class="cls-5" d="M83.48,207.63c7.59-1.95,10.62-2.95,14.1-5.29,1.93-1.3,8.28-5.57,7.45-7.93-1.29-3.71-20.65-3.31-33.63,7.12-3.36,2.69-8.08,7.49-7.05,9.35C65.13,212.29,71.26,210.76,83.48,207.63Z" transform="translate(-29.53 -54.25)"/><path class="cls-6" d="M80.09,243.34c1.16,2.66,5,5,15.83,5.11l12.76,17.87h17.87q6.39-24.51,12.77-49c2.33-2.85,36.22-43.08,84.26-37.28,44.3,5.35,81.77,47.58,83.23,101.11a1197.23,1197.23,0,0,0,148.59,4.08A1197.79,1197.79,0,0,0,627,266.83c-.25-5.68-1.23-42.09,27.57-70,25-24.23,55.46-25.43,62.3-25.53,8.49-.17,33.26.47,55.66,17.87,37,28.78,33.53,76.89,33.19,80.68,23.33-17.94,23.77-29.77,23-34.72-.23-1.47-.6-2.46-4.08-10.21-5.67-12.6-8.5-18.91-12.26-26.56-13.28-27.06-6.92-39-17.36-49-12.86-12.31-36.19-7.33-44.43-5.61C676.14,159.25,539.13,176.86,521.28,179c-9.47,1.14-6.17.41-265.53-14.3-15.42-.87-50.14-2.45-89.88,12.26C118.71,194.41,74.76,231.11,80.09,243.34Z" transform="translate(-29.53 -54.25)"/><rect class="cls-7" x="28.6" y="187.04" width="40.34" height="40.34" rx="20.17"/><path class="cls-8" d="M241.09,157a358.21,358.21,0,0,0,55.7-18.21,359.6,359.6,0,0,0,37.74-18.55,319.62,319.62,0,0,1,153-44.78,6.72,6.72,0,0,1,6.92,7.14q-1.64,27.09-3.28,54.17a6.73,6.73,0,0,1-6.29,6.31L243.13,158.57" transform="translate(-29.53 -54.25)"/><path class="cls-9" d="M525.32,81.31l-.3,55.14,123.58-7.83-19.41-49.7-95.66-5.34A7.79,7.79,0,0,0,525.32,81.31Z" transform="translate(-29.53 -54.25)"/><path class="cls-10" d="M657.75,88.2l31,39.23,65.34-20.15L661,84C658.25,83.26,656.09,86.1,657.75,88.2Z" transform="translate(-29.53 -54.25)"/><path class="cls-11" d="M165,181.87c28.25-16.35,57-15.42,67.78-15.13,96,2.64,192-5.75,288-7.14,140.91-2,194.56-14.29,209.36-19.41,19.5-6.74,41-7.15,60.08-14.91a18.72,18.72,0,0,1,9.85-1.36c7.63,1.13,15.1,7.76,16.37,15.25.63,3.75-.69,5.35-3.58,13.79-3.21,9.36-6,17.46-6.13,25-.26,14.28,9,21.13,6.64,24-4.25,5.22-34.31-18.21-62.3-28.6-30.28-11.24-49.47-4-128.5,12.32-81.89,16.92-123.78,25.39-169.71,26-28.8.37-50.86-2.3-95-7.66-110.71-13.44-147.68-32.8-192-9.7-29.12,15.18-44.32,39.79-46.46,37.81C117.06,230,134.59,199.47,165,181.87Z" transform="translate(-29.53 -54.25)"/><path class="cls-12" d="M509.53,64.62q-1.62,29.21-3.06,58.72c-2.15,43.95-4,57.43-3.58,80.17A478.55,478.55,0,0,0,508,264.79" transform="translate(-29.53 -54.25)"/><path class="cls-13" d="M768.72,144.62c11.61,4,9.49,12.19,21.2,15.32,5.93,1.58,5.66-.73,19.91.51,8.47.73,12.58,1.9,14.55-.51,1.74-2.13-.76-4.69-.76-11,0-7.35,3.29-8.56,2.81-12.77-1.27-11.11-25.75-16.25-28.6-16.85-6.25-1.31-12.53-2.55-19.15.26-6.2,2.62-5.35,6.89-11.74,10.21-5.74,3-8.09.76-20,2.89-1.07.19-15.64,2.86-15.53,5.53,0,.44.49,1.56,10.72,3.58C758.17,145,760.94,141.91,768.72,144.62Z" transform="translate(-29.53 -54.25)"/><path class="cls-5" d="M749.36,136.45c0-.62,13.16,1.78,28.6-3.07,8-2.52,7.8-4.21,13.62-5.1,14-2.15,28.29,5.76,28.25,11.23,0,2.21-2.36,3.57-1.87,6.81.44,2.93,2.68,4,2.21,5.11-.65,1.57-5.45.67-12.77,0-12-1.1-12.59.1-16.51-1.54-6.36-2.65-4.8-5.83-11.23-9-2.86-1.41-4.39-1.39-20.43-3.06C752.48,137.11,749.35,136.75,749.36,136.45Z" transform="translate(-29.53 -54.25)"/><path class="cls-14" d="M76.26,209.22c4.67-1.2,6.54-1.81,8.68-3.25,1.19-.8,5.1-3.44,4.59-4.89-.79-2.29-12.72-2-20.72,4.38-2.06,1.66-5,4.62-4.34,5.77C65,212.1,68.73,211.15,76.26,209.22Z" transform="translate(-29.53 -54.25)"/><path class="cls-14" d="M784.09,139.85c0-.32,6.06,1,13.18-1.62,3.7-1.34,3.6-2.24,6.28-2.72,6.47-1.14,13.05,3.06,13,6,0,1.18-1.09,1.9-.86,3.62.2,1.56,1.23,2.11,1,2.71-.3.84-2.52.36-5.89,0-5.53-.58-5.81.06-7.61-.81-2.94-1.41-2.22-3.1-5.18-4.79-1.32-.76-2-.75-9.42-1.63C785.52,140.2,784.08,140,784.09,139.85Z" transform="translate(-29.53 -54.25)"/><polyline class="cls-15" points="35.23 186.53 62.81 191.64 88.34 228.92"/><polyline class="cls-16" points="608.25 178.15 579.67 183.25 553.2 220.53"/><polyline class="cls-17" points="602.5 192.66 585.55 195.69 569.86 217.78"/><path class="cls-18" d="M134.13,326.06H56.28a108.56,108.56,0,0,0-12.37.17,105.44,105.44,0,0,0-14.38,2l15.33-24.7a11.59,11.59,0,0,1,11.42-11.76h77.85c6,.63,7.71,2.14,8.08,3.44.54,1.94-1.72,3.77-1,5.78.61,1.6,2.7,2.24,4.3,2.54l31.9,27.08q-15.39-1.56-30.91-3.23Z" transform="translate(-29.53 -54.25)"/><path class="cls-19" d="M680.6,329.09l-426.22-3.32,29.73-24,369.09.76Z" transform="translate(-29.53 -54.25)"/><path class="cls-20" d="M859.19,328.74,760,328.11,783.75,298h49.53Z" transform="translate(-29.53 -54.25)"/><path class="cls-21" d="M319.75,134.06c2.12-5.47,9.33-7.19,17.7-9.19,6.36-1.52,9.59-2.29,12.59-.68,8.09,4.34,10.75,24,1,31-6.32,4.55-15.37,2-20.42-1C323.62,150,317.1,140.86,319.75,134.06Z" transform="translate(-29.53 -54.25)"/><polyline class="cls-22" points="305.48 114.72 276.89 119.83 250.42 157.1"/><polyline class="cls-23" points="292.62 141.3 274.61 144.51 257.93 168"/><rect class="cls-24" x="349.84" y="111.1" width="8.42" height="40.22" transform="translate(-51.81 46.21) rotate(-15.66)"/><path class="cls-25" d="M367.83,108.28c-1.09-3.41,35.41-17.27,62.55-25.79,47.11-14.79,54.59-9.89,57.2-6.64,3.9,4.87,3.18,13.93-1,19.41-8.2,10.66-26.53,3.68-57.44,4.08C391.18,99.83,368.7,111,367.83,108.28Z" transform="translate(-29.53 -54.25)"/><path class="cls-25" d="M526.89,74.06c4.74-6.3,14.64-5,28.6-4.34,45.76,2.08,58.5-7.66,69.7,3.58,4.87,4.88,7.16,11.33,10.21,19.91,4.37,12.27,5.52,24.48,4.35,24.77-1.83.45-1.37-29.71-18.13-40.34-27.18-17.24-77.7,30.83-93.19,15.57C523.66,88.52,523.27,78.9,526.89,74.06Z" transform="translate(-29.53 -54.25)"/><path class="cls-25" d="M528.44,73.84c2.87-3.81,8.86-3,17.3-2.62,28.08,1.27,38.12-4.2,42.18,2.16,2.19,3.45,1.42,8.61-.62,11.74-2.53,3.89-7.2,4.95-10.51,5.56-13.95,2.59-39.76,7.38-47.42-5.25C527.32,82.05,526.17,76.87,528.44,73.84Z" transform="translate(-29.53 -54.25)"/><path class="cls-25" d="M430.75,89.28c-.48-1.49,15.51-7.57,27.4-11.3,20.64-6.48,23.92-4.33,25.06-2.91,1.71,2.13,1.4,6.1-.45,8.5-3.59,4.67-11.62,1.61-25.17,1.79C441,85.58,431.13,90.47,430.75,89.28Z" transform="translate(-29.53 -54.25)"/><path class="cls-25" d="M659.19,76.47c2.17-2.88,6.87-4,17.31-2.62,15.14,2,28.34,7.35,57.2,22.94,13.54,7.31,16.31,9.2,16.09,9.7-.56,1.24-17.62-9.94-42.24-13.18-25.23-3.32-41.65,4.28-47.43-5.25C658.07,84.68,656.92,79.5,659.19,76.47Z" transform="translate(-29.53 -54.25)"/></g><g id="Aleron"><path class="cls-26" d="M716,66.4l31.4-11.78,53.2-.37A74.31,74.31,0,0,0,779,78.18a73.18,73.18,0,0,0-6.81,16.76L715.85,69.6A1.73,1.73,0,0,1,716,66.4Z" transform="translate(-29.53 -54.25)"/></g><g id="lip"><polyline class="cls-26" points="758.31 225.96 811.12 222.99 801.93 245.97 751.89 243.42 757.51 228.1"/><path class="cls-26" d="M287.62,293.31q75.54,1.83,156.76.34c69.45-1.38,135.93-4.74,199.18-9.55q5.36,9.19,10.69,18.4l-373.78,1Z" transform="translate(-29.53 -54.25)"/><path class="cls-26" d="M54.51,274.19l8.69-3.36,78.41,13.79,5.33,21.44L43.41,297.64v-7.19A17.43,17.43,0,0,1,54.51,274.19Z" transform="translate(-29.53 -54.25)"/></g><g id="llantas"><circle class="cls-27" cx="687.07" cy="210.38" r="63.83"/><circle class="cls-28" cx="686.81" cy="211.66" r="43.66"/><ellipse class="cls-29" cx="687.06" cy="211.53" rx="33.83" ry="34.34"/><circle class="cls-30" cx="686.81" cy="211.92" r="52.6"/><circle class="cls-26" cx="686.68" cy="211.28" r="16.72"/><rect class="cls-26" x="698.47" y="217.4" width="5.11" height="38.55" transform="translate(-59.58 296.37) rotate(-27.51)"/><rect class="cls-26" x="706.26" y="215.23" width="5.11" height="38.55" transform="translate(-63.23 102.24) rotate(-12.31)"/><rect class="cls-26" x="727.72" y="218.37" width="5.11" height="38.55" transform="translate(125.84 -325.79) rotate(23.5)"/><rect class="cls-26" x="734.31" y="223.06" width="5.11" height="38.55" transform="translate(283.89 -461.84) rotate(38.71)"/><rect class="cls-26" x="682.62" y="243.34" width="5.11" height="38.55" transform="translate(386.9 891.16) rotate(-89.49)"/><rect class="cls-26" x="684.37" y="235.45" width="5.11" height="38.55" transform="translate(226.09 792.69) rotate(-74.28)"/><rect class="cls-26" x="715.02" y="279.47" width="5.11" height="38.55" transform="translate(1426.74 486.33) rotate(175.52)"/><rect class="cls-26" x="707.01" y="278.41" width="5.11" height="38.55" transform="translate(1321.75 668.04) rotate(-169.27)"/><rect class="cls-26" x="740.75" y="267.71" width="5.11" height="38.55" transform="matrix(-0.61, 0.79, -0.79, -0.61, 1396.68, -177.72)"/><rect class="cls-26" x="734.57" y="272.93" width="5.11" height="38.55" transform="matrix(-0.8, 0.6, -0.6, -0.8, 1472.45, 28.86)"/><rect class="cls-26" x="745.85" y="241.04" width="5.11" height="38.55" transform="matrix(0.13, 0.99, -0.99, 0.13, 878.75, -570.03)"/><rect class="cls-26" x="745.23" y="249.1" width="5.11" height="38.55" transform="translate(1084 -491.17) rotate(97.67)"/><rect class="cls-26" x="688.84" y="269.33" width="5.11" height="38.55" transform="translate(951.68 925.24) rotate(-135.41)"/><rect class="cls-26" x="684.38" y="262.59" width="5.11" height="38.55" transform="translate(759.44 963.08) rotate(-120.21)"/><circle class="cls-27" cx="182.3" cy="210.38" r="63.83"/><circle class="cls-28" cx="182.05" cy="211.66" r="43.66"/><ellipse class="cls-29" cx="182.3" cy="211.53" rx="33.83" ry="34.34"/><circle class="cls-30" cx="182.05" cy="211.92" r="52.6"/><circle class="cls-26" cx="181.92" cy="211.28" r="16.72"/><rect class="cls-26" x="193.71" y="217.4" width="5.11" height="38.55" transform="translate(-116.67 63.18) rotate(-27.51)"/><rect class="cls-26" x="201.49" y="215.23" width="5.11" height="38.55" transform="translate(-74.83 -5.37) rotate(-12.31)"/><rect class="cls-26" x="222.96" y="218.37" width="5.11" height="38.55" transform="translate(83.96 -124.48) rotate(23.5)"/><rect class="cls-26" x="229.54" y="223.06" width="5.11" height="38.55" transform="translate(173.01 -146.17) rotate(38.71)"/><rect class="cls-26" x="177.86" y="243.34" width="5.11" height="38.55" transform="translate(-113.35 386.42) rotate(-89.49)"/><rect class="cls-26" x="179.6" y="235.45" width="5.11" height="38.55" transform="translate(-141.93 306.8) rotate(-74.28)"/><rect class="cls-26" x="210.25" y="279.47" width="5.11" height="38.55" transform="matrix(-1, 0.08, -0.08, -1, 418.74, 525.71)"/><rect class="cls-26" x="202.24" y="278.41" width="5.11" height="38.55" transform="translate(321.04 574.05) rotate(-169.27)"/><rect class="cls-26" x="235.98" y="267.71" width="5.11" height="38.55" transform="matrix(-0.61, 0.79, -0.79, -0.61, 581.98, 220.68)"/><rect class="cls-26" x="229.8" y="272.93" width="5.11" height="38.55" transform="translate(564.1 332.03) rotate(143.09)"/><rect class="cls-26" x="241.09" y="241.04" width="5.11" height="38.55" transform="matrix(0.13, 0.99, -0.99, 0.13, 440.21, -69.63)"/><rect class="cls-26" x="240.47" y="249.1" width="5.11" height="38.55" transform="translate(511.89 9.08) rotate(97.67)"/><rect class="cls-26" x="184.07" y="269.33" width="5.11" height="38.55" transform="translate(87.42 570.91) rotate(-135.41)"/><rect class="cls-26" x="179.62" y="262.59" width="5.11" height="38.55" transform="translate(0.71 526.86) rotate(-120.21)"/></g></svg>