<?xml version="1.0" encoding="UTF-8"?><svg xmlns="http://www.w3.org/2000/svg" xmlns:xlink="http://www.w3.org/1999/xlink" viewBox="0 0 783.19 912.36"><defs><style>.h{fill:#bb8763;}.i{fill:#684223;}.j{fill:#d67d36;}.k{fill:#e5c2a5;}.l{fill:#efd6c6;}.m{fill:#edc597;}.n,.o{fill:#60391c;}.p{stroke-width:1.46px;}.p,.q,.r,.s,.t{fill:none;stroke:#c47930;stroke-miterlimit:10;}.u{fill:#937e6a;}.v{fill:url(#c);}.v,.w{opacity:.53;}.o{opacity:.31;}.x{fill:#eec789;opacity:.37;}.y{fill:#d3a585;}.a`{fill:#b55321;}.aa{fill:#e5ad75;}.q{stroke-width:2.83px;}.r{stroke-width:1.84px;}.ab{fill:#9c5122;}.ac{fill:#d8b59f;}.ad{fill:#97c9d4;}.w{fill:url(#b);}.ae{fill:#7c3c1d;}.s{stroke-width:2.47px;}.af{fill:#723c1b;}.ag{fill:#d57a28;}.ah{fill:#a36b45;}.ai{fill:#030402;}</style><linearGradient id="b" x1="189.36" y1="802.57" x2="189.36" y2="624.38" gradientTransform="matrix(1, 0, 0, 1, 0, 0)" gradientUnits="userSpaceOnUse"><stop offset="0" stop-color="#fff"/><stop offset="1" stop-color="#ffed00"/></linearGradient><linearGradient id="c" x1="708.15" y1="810.19" x2="708.15" y2="632" gradientTransform="translate(1249.08) rotate(-180) scale(.93 -1)" xlink:href="#b"/></defs><g id="a"><path class="y" d="M155.48,42.42l-28.72,239.84c-.69,5.74,6.38,9.06,10.31,4.82,2.7-2.91,5.82-5.76,9.42-8.4,14.16-10.39,28.96-12.45,35.74-13.28,86.04-10.44,212.43-6.13,212.43-6.13,38.74,1.32,144.61,3.43,198.13,11.23,14.21,2.07,41,6.92,68.43,24.51h0c4.14,2.66,9.54-.6,9.11-5.5-7.31-84.17-14.61-168.35-21.92-252.52-.27-3.09-2.86-5.47-5.96-5.48l-475.71-1c-1.83,0-3.55,.82-4.7,2.25l-5.3,6.62c-.7,.87-1.14,1.92-1.27,3.03Z"/><path class="h" d="M668.4,485.62l-39.18,135.65c-24.85,20.84-49.7,41.67-74.56,62.51,8-35.75,16-71.5,24-107.25l89.74-90.92Z"/><path class="h" d="M130.91,460.21l32.84,148.18c28.37,23.77,56.74,47.55,85.12,71.32-6.48-38.08-12.96-76.16-19.43-114.24l-98.52-105.26Z"/><polygon class="ah" points="228.19 568.98 588.96 586.2 553.72 684.64 248.87 679.72 228.19 568.98"/><path class="o" d="M127.85,294s4.33-9.33,10.72-17.62c28.57-37.07,158.29-33.05,225.19-32.94,0,0,275.84,.48,301.02,33.7,.15,.2,1.79,3,5.32,3.82h.04c9.89,2.25,4.6,81.2,4.6,81.2-4.7,69.98-7.04,104.96-9.96,111.83-21.19,49.94-77.51,69.42-124.85,85.79-16.76,5.79-157.66,52.09-302.55-16.85-39.64-18.86-85.61-41.52-104.17-88.85-.77-1.96-4.34-31.18-11.49-89.62-2.75-22.52-5.31-45.85,6.13-70.47Z"/><rect class="ab" x="306.48" y="462" width="111.06" height="64.34"/><rect class="i" x="510.74" y="302.43" width="132.26" height="61.28" rx="12.51" ry="12.51"/><rect class="k" x="225.82" y="356.04" width="18.38" height="90.38"/><path class="a`" d="M522.48,390.77c-4.8-5.06-19.87-.09-29.62,7.66-12.92,10.27-16.53,25.46-19.4,38.3-7.03,31.43,2.45,46.03-9.7,58.72-5.99,6.25-7.61,3.77-18.89,13.79-15.59,13.83-26.07,32.11-22.98,35.23,1.86,1.88,6.52-3.86,18.38-6.13,14.74-2.82,21.08,3.44,29.62-1.02,4.23-2.21,6.49-5.74,11.23-16.34,9.17-20.48,14.3-30.65,15.32-41.36,2.66-27.99-7.64-39.88,1.53-51.06,5.99-7.3,12.89-5.28,19.91-15.32,4.88-6.97,8.69-18.15,4.6-22.47Z"/><rect class="m" x="404.53" y="265.66" width="21.45" height="46.98" rx="10.72" ry="10.72"/><path class="t" d="M224.27,467.36c1.41,.54,17.44,6.34,31.66-3.57,11.04-7.69,13.37-19.55,13.79-21.96"/><path class="p" d="M217.48,459.25c2.85,.57,35.14,6.73,63.78-3.8,22.24-8.17,26.93-20.77,27.78-23.33"/><path class="s" d="M154.18,475.83c4.8,.96,59.27,11.35,107.58-6.4,37.52-13.79,45.42-35.03,46.85-39.34"/><path class="r" d="M334.57,338.78c2.47-1.04,30.5-12.21,55.36,6.89,19.3,14.83,23.37,37.68,24.11,42.32"/><path class="q" d="M332.87,328.81c2.47,2.71,29.4,33.65-.92,70.58-23.54,28.67-65.35,41.16-73.87,43.58"/><path class="r" d="M293.72,278.43c-3.57,4.86-9.18,11.52-17.36,17.87-2.49,1.94-23.6,18.32-30.64,12.77-3.48-2.74-3.73-11,0-14.3,9.9-8.75,50.81,14.81,48.51,24-.95,3.79-9.58,6.46-14.3,3.57-10.68-6.53,3.27-38.72-2.55-41.36-7.52-3.41-42.33,44.97-31.66,58.21,3.79,4.7,16.28,8.69,22.47,10.21,5.1,1.26,9.02,1.61,9.19,3.06,.31,2.64-12.46,2.52-19.91,10.72-8.29,9.11-9.78,28.2,.51,38.3,6.66,6.54,15.55,6.64,16.34,6.64,10.36-.04,16-7.49,22.47-11.23,16.97-9.83,38.24,6.66,59.74,13.28,54.71,16.82,109.36-30.83,115.91-19.91,1.04,1.72,.1,3.62-14.81,26.04-21.32,32.06-25.4,37.19-31.66,37.28-2.77,.04-10.49-.84-19.91-16.34"/><path class="r" d="M321.29,282c4.12-9.83,5.45-18.24,13.28-21.96,11.48-5.45,29.45,2.77,38.81,14.81,11.46,14.74,9.04,33.94,7.15,49.02-1.71,13.63-4.29,13.8-8.68,34.72-5.75,27.43-2.3,31.78-7.15,38.81-14.5,20.99-71.74,20.33-83.23-1.53-15.42-29.36,54.22-91.98,43.91-102.13-2.92-2.87-12.33,.3-31.15,6.64-20.19,6.8-22.27,10.63-30.64,9.7-12.13-1.34-13.25-9.97-29.62-14.81-8.22-2.43-23.04-4.72-25.53,0-4.13,7.84,22.3,41.51,50.55,40.85,25.29-.59,51.65-28.7,62.3-54.13Z"/><rect class="j" x="246.23" y="413.23" width="186.89" height="28.09"/><rect class="ae" x="249.29" y="369.32" width="185.36" height="22.47"/><polygon class="n" points="131.85 444.38 236.02 522.51 334.06 535.53 559.25 531.7 668.02 448.98 667.25 488.81 589.89 589.15 226.06 581.49 131.85 470.43 131.85 444.38"/><ellipse class="ac" cx="240.45" cy="648.64" rx="49.02" ry="42.13"/><ellipse class="ac" cx="541.09" cy="657.06" rx="49.02" ry="42.13"/><ellipse class="ad" cx="543.38" cy="663.96" rx="38.87" ry="33.41"/><ellipse class="ad" cx="239.87" cy="655.06" rx="38.87" ry="33.41"/><path class="w" d="M208.89,641.72c-.8,.83-1.49,1.48-1.95,1.91L49.57,797.98l279.57,4.6c-40.06-46.07-47.91-80.95-46.81-105.19,.51-11.24,3.55-33.39-9.42-52.6-2.71-4.01-11.66-17.27-27.86-19.91-11.71-1.91-25.5,2-29.11,7.66-.52,.82-2.82,4.79-7.07,9.19Z"/><path class="v" d="M573.02,649.34c.79,.83,1.47,1.48,1.93,1.91l155.71,154.34-276.64,4.6c39.63-46.07,47.41-80.95,46.32-105.19-.51-11.24-3.52-33.39,9.32-52.6,2.68-4.01,11.54-17.27,27.57-19.91,11.59-1.91,25.23,2,28.8,7.66,.51,.82,2.79,4.79,7,9.19Z"/><rect class="x" x="140.11" y="308.55" width="56.55" height="41.36" rx="14.68" ry="14.68"/><path class="af" d="M322.93,320.73c.1-.84,.28-2.07,.6-3.53,0,0,2.89-13.5,12.86-22.84,11.99-11.23,33.54-7.27,40.9-5.92,28.04,5.16,29.88,19.26,69.42,34.98,26.28,10.45,36.61,8.64,43.05,5.92,12.11-5.12,15.68-15.67,20.99-13.99,7.46,2.35,11.37,26.62,.54,37.13-4.03,3.91-10.37,6.19-25.83,4.84-45.4-3.95-88.73-32.1-94.72-36.06-6.98-4.62-20.64-14.09-24.22-10.76-3.37,3.13,5.9,14.1,1.08,23.14-3.61,6.76-12.83,8.18-15.61,8.61-16.58,2.56-29.5-11.05-31.21-12.92"/><path class="l" d="M172.27,60.07l-26.76,183.72c-.64,4.4,5.94,6.94,9.61,3.7,2.52-2.23,5.42-4.41,8.77-6.44,13.2-7.96,26.99-9.54,33.31-10.17,80.17-8,197.94-4.69,197.94-4.69,36.1,1.01,134.75,2.63,184.61,8.61,13.24,1.59,38.2,5.3,63.76,18.78h0c3.86,2.04,8.89-.46,8.49-4.22-6.81-64.48-13.61-128.96-20.42-193.44-.25-2.37-2.66-4.19-5.56-4.2l-443.26-.77c-1.7,0-3.31,.63-4.38,1.72l-4.94,5.07c-.65,.67-1.06,1.47-1.18,2.32Z"/></g><g id="d"><rect class="u" x="134.87" y="343.02" width="83.23" height="73.53" rx="14.68" ry="14.68"/></g><g id="e"><rect class="ag" x="504.06" y="388.72" width="139.91" height="67.91" rx="16.85" ry="16.85"/></g><g id="f"><rect class="aa" x="202.53" y="302.17" width="30.64" height="54.13" rx="13.28" ry="13.28"/></g><g id="g"><rect class="ai" x="633.03" y="29.54" width="7.58" height="461.95" rx="3.79" ry="3.79" transform="translate(-26.29 76.97) rotate(-6.78)"/></g></svg>