<svg xmlns="http://www.w3.org/2000/svg" viewBox="0 0 1020.26 181.79"><defs><style>.cls-1{fill:#030402;}</style></defs><g id="tribales"><path class="cls-1" d="M533,101.79c-33.64-2.85-58.42,2.75-75.37,8.83-20.51,7.36-36.88,18.07-62.53,15.78-8.33-.75-21.71-2.14-28.88-12.54-5.58-8.1-7-21.15-1.24-28.94,14.5-19.51,70-.2,70.28-1.5.12-.65-13.87-4.26-31.21-4.28-12.5,0-17.89,1.83-22.07,4.94-1.87,1.39-7.42,5.54-7.4,11.45,0,6.48,6.71,10.87,9.12,12.44,9.66,6.33,20.77,5.22,25.24,4.72,25.59-2.91,47.22-10.26,53.33-12.15C477.77,95.74,500.77,92.79,533,101.79Z"/><path class="cls-1" d="M77.41,111.12C135.3,116,178,106.35,207.13,95.87c35.3-12.69,63.47-31.13,107.63-27.21,14.33,1.28,37.37,3.67,49.71,21.56,9.62,14,12.11,36.41,2.16,49.82-24.94,33.59-120.56.4-121,2.64-.2,1.11,23.87,7.31,53.73,7.35,21.51,0,30.79-3.17,38-8.54,3.21-2.39,12.77-9.53,12.74-19.71,0-11.14-11.58-18.69-15.72-21.41-16.63-10.88-35.75-9-43.45-8.09-44.05,5-81.27,17.68-91.79,21C172.5,121.5,132.9,126.6,77.41,111.12Z"/><path class="cls-1" d="M125.41,49c51.4-2.16,89.19,3.06,115,8.63,31.25,6.75,56.12,16.41,95.33,14.65,12.72-.56,33.18-1.66,44.24-10.79,8.62-7.12,11-18.66,2.21-25.62-21.92-17.44-107-.94-107.31-2.09-.17-.58,21.22-3.62,47.72-3.46,19.08.12,27.29,1.82,33.64,4.62,2.84,1.25,11.28,5,11.18,10.22-.1,5.74-10.38,9.55-14.07,10.93-14.82,5.5-31.78,4.39-38.6,3.9-39.05-2.85-72-9.59-81.31-11.34C209.84,44.27,174.74,41.41,125.41,49Z"/><path class="cls-1" d="M584.41,61.56c-40.35,1.64-70-2.34-90.29-6.58-24.53-5.14-44.06-12.49-74.84-11.16-10,.43-26,1.26-34.73,8.21-6.77,5.41-8.61,14.2-1.74,19.5,17.21,13.27,84,.72,84.25,1.6.14.44-16.66,2.75-37.46,2.62-15-.09-21.43-1.38-26.42-3.52-2.22-1-8.85-3.79-8.77-7.77.08-4.37,8.15-7.27,11-8.32,11.63-4.18,24.94-3.34,30.3-3a559.3,559.3,0,0,1,63.84,8.63C518.12,65.18,545.68,67.36,584.41,61.56Z"/><path class="cls-1" d="M443.29,101.37c33.63-2.54,58.34,3.3,75.21,9.54,20.43,7.55,36.68,18.42,62.33,16.37,8.32-.67,21.71-1.94,29-12.27,5.66-8.05,7.22-21.08,1.51-28.92-14.29-19.65-70-.87-70.2-2.17-.11-.65,13.9-4.12,31.23-4,12.48.1,17.85,2,22,5.16,1.85,1.41,7.36,5.6,7.29,11.51-.09,6.48-6.82,10.81-9.24,12.36-9.71,6.24-20.8,5-25.26,4.47-25.54-3.14-47.08-10.69-53.17-12.65C498.54,95.84,475.58,92.67,443.29,101.37Z"/><path class="cls-1" d="M898.39,115C840.5,119.34,798,109.29,768.93,98.53c-35.16-13-63.12-31.73-107.28-28.22-14.33,1.14-37.37,3.31-49.87,21.08-9.74,13.86-12.45,36.29-2.63,49.8C633.75,175,729.6,142.73,730,145c.19,1.12-23.92,7.09-53.75,6.84-21.49-.18-30.74-3.46-37.87-8.89-3.18-2.43-12.67-9.65-12.54-19.83.15-11.15,11.74-18.59,15.91-21.26,16.71-10.73,35.81-8.63,43.48-7.68,44,5.43,81,18.45,91.52,21.81C803.28,124.48,842.8,130,898.39,115Z"/><path class="cls-1" d="M851,52.47c-51.33-2.64-89.13,2.22-115,7.55-31.29,6.45-56.23,15.87-95.38,13.75-12.71-.69-33.14-2-44.1-11.21-8.54-7.21-10.78-18.77-2-25.65,22.07-17.23,106.87.08,107.23-1.07.18-.58-21.16-3.82-47.63-3.91-19.07-.06-27.3,1.56-33.67,4.3-2.84,1.23-11.31,4.88-11.26,10.12,0,5.73,10.28,9.65,14,11,14.75,5.64,31.7,4.7,38.52,4.27,39-2.48,72-8.91,81.35-10.57C766.7,46.91,801.8,44.38,851,52.47Z"/><path class="cls-1" d="M392.32,60.65c40.3,2,70-1.68,90.26-5.73,24.56-4.9,44.14-12.07,74.88-10.45,10,.53,26,1.51,34.62,8.54,6.71,5.48,8.47,14.28,1.55,19.51-17.32,13.11-83.9-.07-84.18.81-.14.43,16.61,2.91,37.4,3,15,0,21.42-1.18,26.42-3.27,2.23-.93,8.88-3.71,8.85-7.7,0-4.36-8.08-7.34-11-8.41-11.59-4.3-24.9-3.58-30.25-3.25a558.28,558.28,0,0,0-63.87,8C458.51,64.89,431,66.82,392.32,60.65Z"/><path class="cls-1" d="M916.28,75.68c-36.52,2.14-63.35-3-81.68-8.39-22.19-6.58-39.85-16-67.7-14.28-9,.56-23.58,1.64-31.46,10.59-6.13,7-7.82,18.27-1.62,25.08,15.54,17,76,.85,76.24,2,.12.56-15.09,3.56-33.91,3.41-13.56-.1-19.39-1.76-23.9-4.5-2-1.23-8-4.87-7.92-10,.09-5.62,7.4-9.36,10-10.7,10.54-5.39,22.59-4.32,27.43-3.84,27.75,2.76,51.14,9.35,57.76,11C856.29,80.39,881.22,83.17,916.28,75.68Z"/></g></svg>