<svg xmlns="http://www.w3.org/2000/svg" viewBox="0 0 1020.26 181.79"><defs><style>.cls-1{fill:#030402;}</style></defs><g id="tribales"><path class="cls-1" d="M460.65,83c33.65,2.69,58.4-3,75.32-9.19,20.48-7.46,36.8-18.24,62.46-16.07,8.33.7,21.72,2,28.94,12.4,5.62,8.08,7.12,21.12,1.38,28.93-14.41,19.58-70,.54-70.27,1.84-.12.65,13.88,4.19,31.23,4.14,12.49,0,17.88-1.92,22-5.06,1.86-1.4,7.4-5.56,7.35-11.48-.05-6.48-6.77-10.83-9.18-12.4-9.69-6.28-20.8-5.12-25.26-4.59-25.59,3-47.17,10.47-53.28,12.4C515.92,88.74,492.93,91.8,460.65,83Z"/><path class="cls-1" d="M916.2,71.46c-57.92-4.6-100.53,5.25-129.64,15.87-35.25,12.86-63.33,31.43-107.51,27.71-14.33-1.2-37.39-3.49-49.81-21.32-9.69-13.9-12.29-36.35-2.4-49.8,24.78-33.72,120.56-1,121-3.22.2-1.11-23.9-7.2-53.76-7.09-21.51.08-30.78,3.31-37.95,8.71-3.19,2.41-12.72,9.59-12.64,19.77.1,11.15,11.66,18.65,15.82,21.34,16.68,10.81,35.8,8.8,43.49,7.89,44-5.22,81.18-18.07,91.69-21.39C821.06,61.54,860.64,56.25,916.2,71.46Z"/><path class="cls-1" d="M868.49,133.77c-51.39,2.41-89.2-2.64-115-8.09-31.28-6.59-56.2-16.14-95.4-14.2-12.71.63-33.17,1.82-44.18,11-8.59,7.16-10.88,18.71-2.09,25.63,22,17.34,107,.43,107.31,1.58.18.58-21.2,3.72-47.69,3.68-19.09,0-27.31-1.68-33.67-4.46-2.84-1.23-11.3-4.93-11.23-10.16.08-5.74,10.34-9.61,14-11,14.78-5.57,31.75-4.54,38.57-4.08,39.07,2.66,72,9.25,81.37,10.95C784.08,138.94,819.2,141.64,868.49,133.77Z"/><path class="cls-1" d="M409.44,123.42c40.34-1.83,70,2,90.32,6.16,24.55,5,44.12,12.28,74.89,10.8,10-.47,26.05-1.38,34.69-8.37,6.74-5.45,8.54-14.24,1.65-19.51-17.28-13.19-84-.32-84.26-1.2-.14-.44,16.65-2.83,37.45-2.8,15,0,21.44,1.28,26.43,3.39,2.23,1,8.87,3.75,8.82,7.74-.07,4.37-8.12,7.31-11,8.36-11.62,4.24-24.93,3.47-30.29,3.11a559,559,0,0,1-63.88-8.33C475.71,119.49,448.14,117.44,409.44,123.42Z"/><path class="cls-1" d="M550.37,83c-33.62,2.69-58.35-3-75.26-9.18-20.46-7.46-36.76-18.25-62.4-16.08-8.32.71-21.71,2-28.91,12.4-5.62,8.08-7.12,21.12-1.38,28.94,14.39,19.57,70,.53,70.21,1.83.11.65-13.87,4.19-31.21,4.14-12.48,0-17.86-1.92-22-5.06-1.86-1.39-7.39-5.56-7.34-11.48.05-6.47,6.76-10.83,9.17-12.4,9.68-6.28,20.78-5.12,25.24-4.59C452,74.49,473.6,82,479.7,83.87,495.15,88.74,518.12,91.8,550.37,83Z"/><path class="cls-1" d="M95.21,71.46c57.87-4.6,100.45,5.25,129.54,15.87C260,100.19,288,118.76,332.16,115c14.32-1.2,37.35-3.49,49.77-21.32,9.68-13.9,12.27-36.35,2.39-49.8-24.76-33.72-120.45-1-120.85-3.22-.2-1.11,23.88-7.2,53.71-7.09,21.5.08,30.75,3.31,37.91,8.71,3.2,2.41,12.72,9.59,12.63,19.77-.09,11.15-11.65,18.65-15.8,21.34-16.66,10.81-35.77,8.8-43.45,7.89-44-5.22-81.11-18.07-91.62-21.39C190.27,61.54,150.73,56.25,95.21,71.46Z"/><path class="cls-1" d="M142.88,133.77c51.34,2.41,89.12-2.64,114.94-8.09,31.25-6.59,56.15-16.14,95.32-14.2,12.7.63,33.14,1.82,44.14,11,8.58,7.16,10.87,18.71,2.09,25.63-22,17.34-106.87.43-107.22,1.58-.18.58,21.18,3.72,47.65,3.69,19.07,0,27.29-1.69,33.64-4.47,2.84-1.23,11.29-4.92,11.22-10.16-.08-5.74-10.33-9.61-14-11-14.78-5.58-31.73-4.55-38.54-4.09-39,2.66-72,9.25-81.3,10.95C227.22,138.94,192.13,141.64,142.88,133.77Z"/><path class="cls-1" d="M601.53,123.42c-40.3-1.83-70,2-90.23,6.16-24.54,5-44.09,12.28-74.84,10.8-10-.47-26-1.38-34.65-8.37-6.74-5.45-8.54-14.24-1.65-19.51,17.26-13.19,83.91-.32,84.18-1.2.14-.44-16.63-2.83-37.41-2.8-15,0-21.42,1.28-26.41,3.39-2.23,1-8.86,3.75-8.81,7.74.06,4.37,8.11,7.31,11,8.36,11.61,4.24,24.91,3.47,30.26,3.11a557.86,557.86,0,0,0,63.83-8.33C535.32,119.49,562.87,117.44,601.53,123.42Z"/><path class="cls-1" d="M77.5,110.88c36.51-2.32,63.37,2.65,81.73,8,22.22,6.48,39.92,15.84,67.77,14,9-.6,23.56-1.75,31.4-10.73,6.1-7,7.74-18.31,1.5-25.09-15.62-17-76-.5-76.24-1.63-.13-.56,15.06-3.62,33.88-3.57,13.56,0,19.41,1.67,23.92,4.39,2,1.22,8,4.83,8,10-.06,5.62-7.35,9.39-10,10.75-10.51,5.44-22.56,4.43-27.41,4-27.76-2.63-51.18-9.1-57.8-10.78C137.47,105.88,112.53,103.22,77.5,110.88Z"/></g></svg>